<?xml version="1.0" standalone="no"?><!DOCTYPE svg PUBLIC "-//W3C//DTD SVG 1.1//EN" "http://www.w3.org/Graphics/SVG/1.1/DTD/svg11.dtd"><svg t="1778743421234" class="icon" viewBox="0 0 1024 1024" version="1.1" xmlns="http://www.w3.org/2000/svg" p-id="23823" xmlns:xlink="http://www.w3.org/1999/xlink" width="200" height="200"><path d="M728.64 136.768l-294.4-39.68-225.28 135.68-76.8 176.64 113.92 271.36 203.52 151.04 256 2.56 135.68-131.84 51.2-195.84-15.36-186.88-28.16-71.68z" fill="#020518" p-id="23824"></path><path d="M667.2 108.608s156.16 28.16 225.28 207.36l-51.2 11.52-190.72-188.16 16.64-30.72z" fill="#020518" p-id="23825"></path><path d="M695.36 131.648s126.72 44.8 176.64 180.48l-19.2 12.8s-56.32 5.12-111.36 165.12c-55.04 160-206.08 199.68-322.56 117.76-116.48-81.92-66.56-253.44 19.2-299.52 85.76-46.08 235.52-81.92 257.28-176.64z" fill="#3541A9" p-id="23826"></path><path d="M255.04 292.928c-1.28 0-3.84 10.24-3.84 11.52-2.56 10.24-5.12 21.76-7.68 32-7.68 35.84-10.24 71.68-7.68 108.8 5.12 80.64 40.96 160 96 217.6 21.76 23.04 46.08 42.24 72.96 57.6 72.96 43.52 161.28 57.6 243.2 38.4 26.88-6.4 52.48-16.64 76.8-28.16 48.64-23.04 93.44-53.76 134.4-88.32 19.2-16.64 37.12-33.28 53.76-52.48 0 0-221.44 399.36-486.4 341.76s-352-290.56-352-290.56 12.8-308.48 180.48-348.16z" fill="#8E8FA6" p-id="23827"></path><path d="M696.64 138.048s17.92-34.56-16.64-57.6c-35.84-24.32-340.48-94.72-524.8 136.96-47.36 60.16-81.92 130.56-96 206.08-12.8 69.12-10.24 139.52 7.68 207.36 17.92 66.56 49.92 129.28 94.72 181.76 51.2 60.16 119.04 104.96 193.28 131.84 20.48 7.68 42.24 14.08 64 17.92 84.48 17.92 171.52 11.52 252.16-16.64 14.08-5.12 28.16-11.52 40.96-17.92 61.44-29.44 113.92-74.24 156.16-128 10.24-12.8 20.48-26.88 29.44-40.96 66.56-104.96 106.24-253.44 37.12-423.68 0 0-19.2-46.08-75.52-17.92-24.32 12.8-51.2 133.12-55.04 192-3.84 60.16-51.2 307.2-261.12 377.6s-444.16-90.88-413.44-346.88c30.72-256 305.92-311.04 439.04-332.8 133.12-21.76 128-69.12 128-69.12z" fill="#E8E9EE" p-id="23828"></path><path d="M699.2 127.808c-10.24 147.2-549.12 28.16-558.08 473.6 0 55.04 57.6 291.84 290.56 298.24 192 5.12 276.48-122.88 320-209.92 70.4-139.52 32-378.88 138.24-381.44-113.92 101.12-15.36 385.28-240.64 542.72-323.84 227.84-656.64-130.56-473.6-448 138.24-218.88 401.92-167.68 523.52-275.2z" fill="#999CB9" p-id="23829"></path></svg>