<?xml version="1.0" standalone="no"?><!DOCTYPE svg PUBLIC "-//W3C//DTD SVG 1.1//EN" "http://www.w3.org/Graphics/SVG/1.1/DTD/svg11.dtd"><svg t="1778384266441" class="icon" viewBox="0 0 1024 1024" version="1.1" xmlns="http://www.w3.org/2000/svg" p-id="2399" xmlns:xlink="http://www.w3.org/1999/xlink" width="200" height="200"><path d="M458.57 413.572V380.74c-11.594-1.616-23.226-2.484-34.944-2.484-143 0-259.34 114.35-259.34 254.744 0 86.116 43.844 162.378 110.75 208.54a251.226 251.226 0 0 1-69.68-173.432c0-138.406 113.026-251.308 253.254-254.498" fill="#3FBABE" p-id="2400"></path><path d="M464.74 784.448c63.8 0 115.84-49.89 118.24-111.992l0.208-554.576h103.132a189.122 189.122 0 0 1-3.312-35.108H542.12l-0.25 554.576c-2.36 62.1-54.4 111.95-118.2 111.95a119.754 119.754 0 0 1-54.982-13.332 118.906 118.906 0 0 0 96.052 48.44m414.306-478.272v-30.804a197.404 197.404 0 0 1-106.776-31.174 196.866 196.866 0 0 0 106.818 61.978" fill="#00F7EF" p-id="2401"></path><path d="M772.27 244.114a189.702 189.702 0 0 1-48.192-126.234h-37.756a192.766 192.766 0 0 0 85.988 126.234M423.666 516.66c-65.332 0-118.45 52.166-118.45 116.338 0 44.672 25.794 83.466 63.47 102.966a114.144 114.144 0 0 1-22.44-67.9c0-64.088 53.12-116.338 118.492-116.338 12.212 0 23.888 1.988 34.984 5.382v-141.18a263.48 263.48 0 0 0-34.984-2.484c-2.072 0-4.14 0.084-6.128 0.166v108.472a118.574 118.574 0 0 0-34.984-5.382" fill="#FF004F" p-id="2402"></path><path d="M879.004 306.05v107.646a339.328 339.328 0 0 1-195.996-61.98v281.2c0 140.48-116.34 254.706-259.38 254.706a261.12 261.12 0 0 1-148.634-46.164 260.832 260.832 0 0 0 189.702 81.314c143 0 259.34-114.27 259.34-254.746V386.908a339.288 339.288 0 0 0 196.038 61.854v-138.406c-14.076 0-27.822-1.532-41.07-4.306" fill="#FF004F" p-id="2403"></path><path d="M682.966 632.96V351.8a339.328 339.328 0 0 0 196.038 61.896v-107.604a196.866 196.866 0 0 1-106.734-61.936A192.766 192.766 0 0 1 686.32 117.88h-103.132l-0.206 554.576c-2.402 62.102-54.444 111.99-118.244 111.99a118.906 118.906 0 0 1-96.052-48.48 116.132 116.132 0 0 1-63.468-103.05c0-64.088 53.118-116.338 118.408-116.338 12.214 0 23.89 2.03 34.984 5.382v-108.472c-140.228 3.312-253.254 116.214-253.254 254.62a251.226 251.226 0 0 0 69.68 173.474 261.164 261.164 0 0 0 148.63 46.162c143 0 259.34-114.268 259.34-254.702" fill="#111111" p-id="2404"></path></svg>