<?xml version="1.0" standalone="no"?><!DOCTYPE svg PUBLIC "-//W3C//DTD SVG 1.1//EN" "http://www.w3.org/Graphics/SVG/1.1/DTD/svg11.dtd"><svg t="1778118600378" class="icon" viewBox="0 0 1024 1024" version="1.1" xmlns="http://www.w3.org/2000/svg" p-id="17890" xmlns:xlink="http://www.w3.org/1999/xlink" width="200" height="200"><path d="M512 512m-495.483871 0a495.483871 495.483871 0 1 0 990.967742 0 495.483871 495.483871 0 1 0-990.967742 0Z" fill="#FFFFFF" p-id="17891"></path><path d="M630.024258 410.987355c7.597419 0 15.128774 0.545032 22.577548 1.370839C632.32 317.918968 531.340387 247.741935 416.090839 247.741935 287.215484 247.741935 181.677419 335.558194 181.677419 447.091613c0 64.396387 35.11329 117.231484 93.811613 158.241032l-23.452903 70.523871 81.936516-41.092129c29.332645 5.780645 52.851613 11.776 82.118194 11.776 7.349677 0 14.649806-0.379871 21.883871-0.941419a174.575484 174.575484 0 0 1-7.234065-49.118968c0-102.4 87.931871-185.492645 199.283613-185.492645z m-127.669677-68.327226a36.236387 36.236387 0 1 1 0 72.48929 36.236387 36.236387 0 0 1 0-72.48929z m-164.021678 73.216a36.236387 36.236387 0 1 1 0-72.472774 36.236387 36.236387 0 0 1 0 72.472774z m304.887742 8.439742c-111.533419 0-199.38271 76.403613-199.38271 170.116129 0 93.877677 87.84929 170.099613 199.38271 170.099613 23.33729 0 46.88929-5.896258 70.325678-11.776l64.29729 35.228903-17.62271-58.58271C807.275355 694.106839 842.322581 647.300129 842.322581 594.415484c0-93.712516-93.778581-170.116129-199.101936-170.116129z m-61.258322 143.855484a25.81471 25.81471 0 1 1 0-51.62942 25.81471 25.81471 0 0 1 0 51.612904z m128.858838 1.453419a25.81471 25.81471 0 1 1 0-51.612903 25.81471 25.81471 0 0 1 0 51.612903z" fill="#65D021" p-id="17892"></path></svg>