<?xml version="1.0" encoding="UTF-8"?>
<svg id="_图层_1" data-name="图层_1" xmlns="http://www.w3.org/2000/svg" version="1.1" xmlns:xlink="http://www.w3.org/1999/xlink" viewBox="0 0 200 200">
  <!-- Generator: Adobe Illustrator 29.3.0, SVG Export Plug-In . SVG Version: 2.1.0 Build 146)  -->
  <defs>
    <style>
      .st0 {
        fill: #ff1515;
      }
    </style>
  </defs>
  <path class="st0" d="M39.1,85.8h-10.3c.9,13.3-2.4,23.4-2.4,23.4l5.5,10c7.3-3.1,7.2-33.5,7.2-33.5M72.2,85.7h-10.2s-.2,30.4,7.1,33.5l5.5-10c0,0-3.2-10.1-2.4-23.4M45.5,116.3h-6.5c0,7.6,6.3,8.2,6.3,8.2h3.2c6.5,0,6.8-7.5,6.8-7.5v-44.6h-9.9v43.9ZM79.9,94.9h6.7l-5.1,10.4s-3,5.9,1.8,6.1h11l4.4-8.1h-5.6c-.5,0-1-.4-1-1s0-.3,0-.4l8.3-16.2h-9.6l-.6,1.2h-.7c-.5,0-1-.4-1-1s0-.3,0-.4l6.9-13.2h-9.6l-8.2,16.5c0,0-2.9,5.8,1.8,6M81.4,114.6s-1.2.1-2.1-.7l-4.9,9.5s.8,1.1,2.5,1.1h12.3l5.3-10h-13.1Z"/>
  <path class="st0" d="M118.6,85.8h6.4v-10.2h-22.7v10.2h6.4v29.2h-9.5l-4.8,9.6h33.7v-9.6h-9.6v-29.2ZM163.9,93.3h-1.2v-6.6c0-6.2-5-11.2-11.2-11.2h-3.8v-3.1h-9.8v3.1h-6.1v10h6.1v7.7h-9.8v10h9.8v21.3h9.8v-21.2h13.5c1.3,0,2.4,1,2.4,2.4v10.5h-9.4c0,4.6,3.8,8.4,8.4,8.4h2.6c4.6,0,8.4-3.8,8.4-8.4v-13.2c0-5.4-4.3-9.7-9.7-9.7M147.7,85.5h3.5c.8,0,1.5.7,1.5,1.5v6.2h-5.1v-7.7h0Z"/>
  <path class="st0" d="M173.5,80.4c0-2.7-2.1-4.9-4.8-4.9s-4.9,2.1-4.9,4.9v4.9h4.9c2.6,0,4.9-2.2,4.9-4.9"/>
</svg>